<?xml version="1.0" encoding="UTF-8"?>
<svg id="Layer_1" data-name="Layer 1" xmlns="http://www.w3.org/2000/svg" viewBox="0 0 500 500">
  <defs>
    <style>
      .cls-1, .cls-2 {
        fill: #fff;
      }

      .cls-2, .cls-3, .cls-4 {
        fill-rule: evenodd;
      }

      .cls-3, .cls-5 {
        fill: #e70020;
      }

      .cls-4 {
        fill: #fbb110;
      }
    </style>
  </defs>
  <path class="cls-4" d="M67.29,151.62c0-6.43,5.26-11.68,11.68-11.68h351.85c6.43,0,11.68,5.26,11.68,11.68v149.57c0,6.43-5.26,11.68-11.68,11.68H78.97c-6.43,0-11.68-5.26-11.68-11.68v-149.57Z"/>
  <path class="cls-2" d="M67.29,156.92h375.22v138.98H67.29v-138.98Z"/>
  <path class="cls-3" d="M411.35,193.01c-17.17,0-31.16,14-31.16,31.16s13.99,31.16,31.16,31.16,31.16-14,31.16-31.16-13.99-31.16-31.16-31.16ZM154.51,193.01c-17.17,0-31.16,14-31.16,31.16s14,31.16,31.16,31.16,31.16-14,31.16-31.16-14-31.16-31.16-31.16h0Z"/>
  <path class="cls-3" d="M382.84,165.59c-28.85-.66-42.41,17.84-62.09,40.65l-18.56,21.52,29.4,35.2c7,10.81-6.37,21.55-14.66,11.65l-27.18-32.43-26.49,30.71c-8.44,9.77-21.65-1.14-14.5-11.86l28.76-33.44-18.84-22.47,12.12-15.01,19.16,23.02,16.52-19.21c8.1-9.42,16.37-21.9,27.08-28.32H67.29v121.64h62.25c28.85,0,41.95-17.25,61.1-40.51l18.07-21.95-30.21-34.51c-7.25-10.65,5.87-21.69,14.39-11.99l27.92,31.79,25.78-31.31c8.2-9.97,21.67.65,14.77,11.52l-27.99,34.1,19.35,22.03-12.2,14.44-19.26-21.73-16.07,19.58c-7.89,9.6-15.87,21.85-26.43,28.52h263.74v-121.64h-59.67ZM177.67,224.18c0,27.12-22.11,49.23-49.23,49.23s-49.24-22.11-49.24-49.23,22.11-49.24,49.24-49.24,49.23,22.11,49.23,49.24h0ZM385.28,273.41c-27.12,0-49.24-22.11-49.24-49.23s22.12-49.24,49.24-49.24,49.23,22.11,49.23,49.24-22.11,49.23-49.23,49.23h0Z"/>
  <g>
    <g>
      <path class="cls-5" d="M94.77,385.69l-19.12-57.04h30.83l5.74,17.85,5.9,18.32h.64l5.82-18.16,5.74-18h22.63l-19.04,57.04h-39.12Z"/>
      <path class="cls-1" d="M134.67,386.77h-40.68l-19.85-59.21h33.13l11.16,34.7,5.1-15.94,5.98-18.76h24.92l-19.76,59.21ZM95.55,384.6h37.55l18.32-54.87h-20.33l-5.5,17.25-6.06,18.92h-2.22l-11.63-36.17h-28.53l18.39,54.87Z"/>
    </g>
    <g>
      <path class="cls-5" d="M154.76,385.69v-57.04h27.96v57.04h-27.96Z"/>
      <path class="cls-1" d="M183.8,386.77h-30.13v-59.21h30.13v59.21ZM155.84,384.6h25.79v-54.87h-25.79v54.87Z"/>
    </g>
    <g>
      <path class="cls-5" d="M196.9,385.69c-2.55,0-4.66-.96-6.33-2.87-1.67-1.91-2.51-4.27-2.51-7.09v-7.65h27.33v1.99c0,1.38.5,2.47,1.51,3.27,1.01.8,2.76,1.19,5.26,1.19s4.27-.41,5.18-1.23c.9-.82,1.35-1.84,1.35-3.07,0-1.33-.35-2.34-1.04-3.03-.69-.69-2.02-1.12-3.98-1.27l-26.45-2.31c-2.71-.27-4.9-1.3-6.57-3.11-1.67-1.8-2.51-4.14-2.51-7.01v-14.9c0-2.87.84-5.24,2.51-7.13,1.67-1.88,3.78-2.83,6.33-2.83h50.35c2.55,0,4.66.94,6.33,2.83,1.67,1.89,2.51,4.26,2.51,7.13v7.65h-27.33v-1.99c0-1.38-.49-2.47-1.47-3.27-.98-.8-2.72-1.19-5.22-1.19s-4.28.39-5.18,1.16c-.9.77-1.35,1.77-1.35,2.99s.28,2.1.84,2.79c.56.69,1.66,1.12,3.31,1.27l27.33,2.31c2.71.21,4.89,1.26,6.53,3.15,1.65,1.89,2.47,4.32,2.47,7.29v14.98c0,2.82-.82,5.18-2.47,7.09-1.65,1.91-3.77,2.87-6.37,2.87h-50.35Z"/>
      <path class="cls-1" d="M247.25,386.77h-50.35c-2.86,0-5.27-1.09-7.15-3.24-1.84-2.11-2.78-4.73-2.78-7.8v-8.73h29.5v3.08c0,1.05.35,1.82,1.1,2.41.56.44,1.8.96,4.59.96s3.97-.52,4.45-.95c.67-.61,1-1.35,1-2.27,0-1.02-.24-1.78-.72-2.26-.28-.28-1.09-.78-3.3-.96l-26.46-2.31c-2.98-.29-5.42-1.45-7.27-3.45-1.86-2-2.8-4.61-2.8-7.75v-14.9c0-3.13.94-5.77,2.78-7.85,1.88-2.12,4.28-3.19,7.15-3.19h50.35c2.86,0,5.26,1.07,7.14,3.19,1.85,2.08,2.78,4.72,2.78,7.85v8.73h-29.5v-3.08c0-1.06-.34-1.83-1.07-2.42-.54-.43-1.76-.95-4.53-.95-2.98,0-4.08.56-4.47.9-.66.57-.97,1.25-.97,2.16s.2,1.62.6,2.11c.21.26.81.71,2.57.88l27.31,2.31c2.98.23,5.43,1.42,7.26,3.51,1.82,2.08,2.74,4.77,2.74,8v14.98c0,3.07-.92,5.69-2.73,7.8-1.85,2.15-4.28,3.25-7.2,3.25ZM189.14,369.17v6.56c0,2.57.73,4.65,2.24,6.38,1.47,1.68,3.28,2.5,5.52,2.5h50.35c2.29,0,4.11-.81,5.55-2.49,1.48-1.73,2.21-3.81,2.21-6.38v-14.98c0-2.73-.72-4.88-2.2-6.58-1.47-1.68-3.36-2.59-5.8-2.78l-27.33-2.31c-1.98-.19-3.3-.74-4.06-1.67-.71-.88-1.08-2.05-1.08-3.47,0-1.55.58-2.83,1.74-3.81,1.12-.95,3.04-1.41,5.88-1.41s4.71.47,5.9,1.44c1.24,1.01,1.88,2.39,1.88,4.11v.91h25.16v-6.56c0-2.62-.73-4.71-2.24-6.41-1.47-1.66-3.28-2.46-5.52-2.46h-50.35c-2.24,0-4.05.81-5.52,2.46-1.5,1.7-2.24,3.79-2.24,6.41v14.9c0,2.61.73,4.66,2.22,6.27,1.5,1.62,3.42,2.52,5.88,2.76l26.44,2.31c2.24.18,3.77.7,4.66,1.59.9.9,1.35,2.18,1.35,3.8,0,1.53-.57,2.84-1.71,3.87-1.12,1.02-3.05,1.52-5.91,1.52s-4.71-.47-5.93-1.43c-1.28-1.01-1.93-2.39-1.93-4.12v-.91h-25.16Z"/>
    </g>
    <g>
      <path class="cls-5" d="M261.51,385.69v-57.04h27.96v57.04h-27.96Z"/>
      <path class="cls-1" d="M290.56,386.77h-30.13v-59.21h30.13v59.21ZM262.59,384.6h25.79v-54.87h-25.79v54.87Z"/>
    </g>
    <g>
      <path class="cls-5" d="M304.05,385.69c-2.55,0-4.66-.96-6.33-2.87s-2.51-4.27-2.51-7.09v-37.12c0-2.87.84-5.24,2.51-7.13,1.67-1.88,3.78-2.83,6.33-2.83h52.58c2.55,0,4.66.94,6.33,2.83,1.67,1.89,2.51,4.26,2.51,7.13v37.12c0,2.82-.84,5.18-2.51,7.09-1.67,1.91-3.78,2.87-6.33,2.87h-52.58ZM330.42,372.38c2.23,0,3.98-.38,5.26-1.16,1.27-.77,1.91-2.08,1.91-3.94v-20.16c0-1.86-.65-3.19-1.95-3.98-1.3-.8-3.09-1.19-5.38-1.19s-4,.39-5.3,1.16c-1.3.77-1.95,2.09-1.95,3.94v20.16c0,1.86.66,3.19,1.99,3.98,1.33.8,3.13,1.19,5.42,1.19Z"/>
      <path class="cls-1" d="M356.63,386.77h-52.58c-2.86,0-5.27-1.09-7.15-3.24-1.84-2.11-2.78-4.73-2.78-7.8v-37.12c0-3.13.94-5.77,2.78-7.85,1.88-2.12,4.28-3.19,7.15-3.19h52.58c2.86,0,5.26,1.07,7.14,3.19,1.85,2.08,2.78,4.72,2.78,7.85v37.12c0,3.07-.93,5.7-2.78,7.8-1.88,2.15-4.29,3.24-7.15,3.24ZM304.05,329.73c-2.24,0-4.05.81-5.52,2.46-1.5,1.7-2.24,3.79-2.24,6.41v37.12c0,2.57.73,4.65,2.24,6.38,1.47,1.68,3.28,2.5,5.52,2.5h52.58c2.24,0,4.05-.82,5.52-2.5,1.51-1.72,2.24-3.81,2.24-6.38v-37.12c0-2.62-.73-4.71-2.24-6.41-1.47-1.66-3.28-2.46-5.52-2.46h-52.58ZM330.42,373.47c-2.47,0-4.48-.45-5.98-1.35-1.15-.69-2.52-2.1-2.52-4.91v-20.16c0-2.82,1.35-4.21,2.48-4.88,1.47-.87,3.43-1.31,5.85-1.31s4.47.46,5.94,1.35c1.13.69,2.47,2.1,2.47,4.91v20.16c0,2.26-.82,3.9-2.44,4.87-1.44.87-3.4,1.31-5.82,1.31ZM330.26,343.04c-2.02,0-3.62.34-4.75,1-.61.36-1.42,1.06-1.42,3.01v20.16c0,1.48.47,2.45,1.46,3.05,1.15.69,2.78,1.04,4.86,1.04s3.6-.34,4.7-1c.6-.36,1.39-1.06,1.39-3.02v-20.16c0-1.49-.46-2.46-1.43-3.06-1.12-.69-2.74-1.04-4.81-1.04Z"/>
    </g>
    <g>
      <path class="cls-5" d="M371.21,385.69v-57.04h27.25l11.71,11.63,8.36,8.29h.64v-19.92h20.08v57.04h-24.86l-12.11-12.35-10.44-10.36h-.56v22.7h-20.08Z"/>
      <path class="cls-1" d="M440.33,386.77h-26.4l-12.42-12.67-9.14-9.07v21.74h-22.25v-59.21h28.78l12.03,11.95,7.15,7.08v-19.03h22.25v59.21ZM414.84,384.6h23.32v-54.87h-17.91v19.92h-2.17l-8.68-8.6-11.39-11.32h-25.71v54.87h17.91v-22.7h2.09l10.76,10.68,11.79,12.02Z"/>
    </g>
  </g>
  <g>
    <g>
      <path class="cls-5" d="M42.65,187.93l-17.1-57.4,33.11-9.86,17.01,14.05.64-.19,6.56-21.07,28.62-8.52,17.1,57.4-27.34,8.14-3.49-11.7-3.75-12.59-.64.19-10.08,29.45-2.57.76-24.57-19.21-.72.21,3.82,12.83,3.44,11.54-20.04,5.97Z"/>
      <path class="cls-1" d="M41.92,189.28l-17.71-59.48,34.7-10.34,16.68,13.77,6.43-20.65,30.21-9,17.71,59.48-29.42,8.76-6.84-22.98-9.54,27.86-3.64,1.08-23.36-18.26,6.9,23.17-22.12,6.59ZM26.9,131.26l16.48,55.32,17.96-5.35-7.26-24.37,2.3-.68,24.57,19.21,1.49-.44,10.08-29.45,2.22-.66,7.23,24.29,25.26-7.52-16.48-55.32-27.03,8.05-6.56,21.07-1.75.52-17.01-14.05-31.51,9.39Z"/>
    </g>
    <g>
      <path class="cls-5" d="M153.76,154.83l-5.35-17.96-35.8-32.28,32.71-9.74,7.09,6.53,8.53,7.84.56-.17,2.36-10.83,2.05-9.51,23.01-6.85-12.3,46.61,5.35,17.96-28.22,8.4Z"/>
      <path class="cls-1" d="M153.03,156.18l-5.57-18.71-37.01-33.37,35.15-10.47,15.13,13.91,2.08-9.55,2.19-10.14,25.47-7.59-12.72,48.18,5.57,18.71-30.3,9.02ZM114.78,105.09l34.59,31.19,5.13,17.21,26.14-7.79-5.13-17.21,11.89-45.03-20.54,6.12-1.92,8.89-2.5,11.46-1.77.53-15.63-14.37-30.27,9.01Z"/>
    </g>
  </g>
  <circle class="cls-1" cx="159.95" cy="224.17" r="15.54"/>
  <circle class="cls-1" cx="418.97" cy="226.4" r="15.54"/>
</svg>